<?xml version="1.0" encoding="UTF-8"?>
<svg width="1920" height="1080" viewBox="0 0 1920 1080" xmlns="http://www.w3.org/2000/svg" role="img" aria-label="Calendar with week highlight">
  <defs>
    <!-- Card + shadow -->
    <filter id="shadow" x="-20%" y="-20%" width="140%" height="140%">
      <feGaussianBlur in="SourceAlpha" stdDeviation="18" result="b"/>
      <feOffset dy="10" in="b" result="o"/>
      <feComponentTransfer>
        <feFuncA type="linear" slope="0.28"/>
      </feComponentTransfer>
      <feMerge><feMergeNode in="o"/><feMergeNode in="SourceGraphic"/></feMerge>
    </filter>

    <linearGradient id="paper" x1="0" y1="0" x2="0" y2="1">
      <stop offset="0%" stop-color="#FFFFFF"/>
      <stop offset="100%" stop-color="#F3F5F6"/>
    </linearGradient>

    <linearGradient id="headerGrad" x1="0" y1="0" x2="0" y2="1">
      <stop offset="0%" stop-color="#E24A3B"/>
      <stop offset="100%" stop-color="#C9392C"/>
    </linearGradient>

    <linearGradient id="ringGrad" x1="0" y1="0" x2="0" y2="1">
      <stop offset="0%" stop-color="#FFC957"/>
      <stop offset="100%" stop-color="#E3A81A"/>
    </linearGradient>

    <linearGradient id="weekBand" x1="0" y1="0" x2="0" y2="1">
      <stop offset="0%" stop-color="#6ED4D1"/>
      <stop offset="100%" stop-color="#2FB9B4"/>
    </linearGradient>

    <pattern id="grid" width="120" height="120" patternUnits="userSpaceOnUse">
      <rect width="120" height="120" fill="none" stroke="#D7DEE2" stroke-width="4"/>
    </pattern>
  </defs>

  <!-- (Optional) subtle backdrop blobs to ensure originality -->
  <g opacity="0.15">
    <ellipse cx="640" cy="350" rx="360" ry="180" fill="#BFE8E7"/>
    <ellipse cx="1320" cy="760" rx="420" ry="210" fill="#BFE8E7"/>
  </g>

  <!-- Calendar card -->
  <g filter="url(#shadow)" transform="translate(560,180)">
    <!-- Outer rounded body -->
    <rect x="0" y="0" width="800" height="720" rx="42" ry="42" fill="url(#paper)" stroke="#C7CDD1" stroke-width="3"/>

    <!-- Header bar -->
    <path d="M0,120 a42,42 0 0 1 42,-42 h716 a42,42 0 0 1 42,42 v84 H0 Z"
          fill="url(#headerGrad)"/>

    <!-- Binding holes (cutouts) -->
    <g fill="#1E1E1E">
      <rect x="150" y="32" width="28" height="110" rx="14"/>
      <rect x="386" y="32" width="28" height="110" rx="14"/>
      <rect x="622" y="32" width="28" height="110" rx="14"/>
    </g>

    <!-- Rings -->
    <g transform="translate(0,0)">
      <g transform="translate(164,10)">
        <path d="M0,0 v64" stroke="url(#ringGrad)" stroke-width="22" stroke-linecap="round" fill="none"/>
      </g>
      <g transform="translate(400,10)">
        <path d="M0,0 v64" stroke="url(#ringGrad)" stroke-width="22" stroke-linecap="round" fill="none"/>
      </g>
      <g transform="translate(636,10)">
        <path d="M0,0 v64" stroke="url(#ringGrad)" stroke-width="22" stroke-linecap="round" fill="none"/>
      </g>
    </g>

    <!-- Grid area -->
    <g transform="translate(32,204)">
      <!-- Week highlight band -->
      <rect x="0" y="240" width="736" height="120" rx="14" fill="url(#weekBand)"/>

      <!-- Grid overlay -->
      <rect x="0" y="0" width="736" height="480" fill="url(#grid)"/>
    </g>

    <!-- Bottom accent line -->
    <rect x="0" y="700" width="800" height="4" fill="#DCE2E6"/>
  </g>

  <!-- Friendly outline to echo the reference style without copying -->
  <g transform="translate(560,180)">
    <rect x="6" y="6" width="788" height="708" rx="38" ry="38" fill="none" stroke="#111" stroke-opacity="0.75" stroke-width="4"/>
  </g>
</svg>
