<?xml version="1.0" encoding="UTF-8"?>
<svg width="1920" height="1080" viewBox="0 0 1920 1080" xmlns="http://www.w3.org/2000/svg" role="img" aria-label="Lo-fi clock / timer icon">
  <defs>
    <filter id="shadow" x="-20%" y="-20%" width="140%" height="140%">
      <feGaussianBlur in="SourceAlpha" stdDeviation="18" result="b"/>
      <feOffset dy="10" in="b" result="o"/>
      <feComponentTransfer><feFuncA type="linear" slope="0.28"/></feComponentTransfer>
      <feMerge><feMergeNode in="o"/><feMergeNode in="SourceGraphic"/></feMerge>
    </filter>

    <!-- palette to match prior icons -->
    <linearGradient id="ringTeal" x1="0" y1="0" x2="0" y2="1">
      <stop offset="0%" stop-color="#6ED4D1"/>
      <stop offset="100%" stop-color="#2FB9B4"/>
    </linearGradient>
    <linearGradient id="caseGrad" x1="0" y1="0" x2="1" y2="1">
      <stop offset="0%" stop-color="#FFFFFF"/>
      <stop offset="100%" stop-color="#F3F5F6"/>
    </linearGradient>
  </defs>

  <!-- gentle backdrop blobs (lo-fi vibe) -->
  <g opacity="0.15">
    <ellipse cx="610" cy="360" rx="360" ry="180" fill="#BFE8E7"/>
    <ellipse cx="1320" cy="760" rx="420" ry="210" fill="#BFE8E7"/>
  </g>

  <!-- timer/clock group -->
  <g filter="url(#shadow)" transform="translate(760,220)">
    <!-- watch case (rounded, imperfect outline) -->
    <circle cx="200" cy="260" r="220" fill="url(#caseGrad)" stroke="#111" stroke-width="8"/>

    <!-- top “timer” tabs/buttons -->
    <g>
      <rect x="120" y="-10" width="60" height="40" rx="10" fill="#E24A3B" stroke="#111" stroke-width="6"/>
      <rect x="220" y="-10" width="60" height="40" rx="10" fill="#E24A3B" stroke="#111" stroke-width="6"/>
      <!-- small lugs / side grips -->
      <rect x="-10" y="240" width="32" height="40" rx="8" fill="#FFC957" stroke="#111" stroke-width="6"/>
      <rect x="378" y="240" width="32" height="40" rx="8" fill="#FFC957" stroke="#111" stroke-width="6"/>
    </g>

    <!-- teal progress ring (unique touch; echoes calendar week band) -->
    <circle cx="200" cy="260" r="170" fill="none" stroke="url(#ringTeal)" stroke-width="32" stroke-linecap="round"
            stroke-dasharray="820 1080" stroke-dashoffset="120"/>

    <!-- inner dial -->
    <circle cx="200" cy="260" r="150" fill="#FFF" stroke="#C7CDD1" stroke-width="4"/>

    <!-- hour/minute ticks (lo-fi, chunky) -->
    <g stroke="#111" stroke-width="8" stroke-linecap="round">
      <line x1="200" y1="100" x2="200" y2="132"/>
      <line x1="200" y1="388" x2="200" y2="420"/>
      <line x1="50"  y1="260" x2="82"  y2="260"/>
      <line x1="318" y1="142" x2="300" y2="160"/>
      <line x1="100" y1="160" x2="118" y2="142"/>
      <line x1="318" y1="378" x2="300" y2="360"/>
      <line x1="100" y1="360" x2="118" y2="378"/>
    </g>

    <!-- hands (lo-fi chunky) -->
    <g stroke="#111" stroke-linecap="round">
      <line x1="200" y1="260" x2="200" y2="170" stroke-width="12"/>  <!-- minute -->
      <line x1="200" y1="260" x2="270" y2="300" stroke-width="8"/>   <!-- hour -->
      <circle cx="200" cy="260" r="10" fill="#111"/>
    </g>

    <!-- bottom label plate for style cohesion -->
    <rect x="150" y="444" width="100" height="22" rx="8" fill="#DCE2E6" stroke="#111" stroke-width="4"/>
  </g>

  <!-- outer friendly outline (echo other icons) -->
  <g transform="translate(760,220)">
    <circle cx="200" cy="260" r="226" fill="none" stroke="#111" stroke-opacity="0.75" stroke-width="4"/>
  </g>
</svg>
