<?xml version="1.0" encoding="UTF-8"?>
<svg width="1920" height="1080" viewBox="0 0 1920 1080" xmlns="http://www.w3.org/2000/svg" role="img" aria-label="Settings tile with clouds">
  <defs>
    <!-- Soft shadow blur -->
    <filter id="softShadow" x="-20%" y="-20%" width="140%" height="140%">
      <feGaussianBlur in="SourceAlpha" stdDeviation="18" result="blur"/>
      <feOffset dx="0" dy="8" result="offset"/>
      <feComponentTransfer>
        <feFuncA type="linear" slope="0.28"/>
      </feComponentTransfer>
      <feMerge>
        <feMergeNode in="offset"/>
        <feMergeNode in="SourceGraphic"/>
      </feMerge>
    </filter>

    <!-- Card gradient -->
    <linearGradient id="cardGrad" x1="0" y1="0" x2="1" y2="1">
      <stop offset="0%" stop-color="#F2EFEA"/>
      <stop offset="100%" stop-color="#E7E2DA"/>
    </linearGradient>

    <!-- Stroke gradient for inner gear rings (subtle) -->
    <linearGradient id="ringGrad" x1="0" y1="0" x2="1" y2="1">
      <stop offset="0%" stop-color="#5A5A5A"/>
      <stop offset="100%" stop-color="#3D3D3D"/>
    </linearGradient>

    <!-- Background blob/sky gradient -->
    <radialGradient id="sky" cx="50%" cy="50%" r="65%">
      <stop offset="0%" stop-color="#CDECEC"/>
      <stop offset="100%" stop-color="#A4D9D9"/>
    </radialGradient>

    <!-- Cloud fill -->
    <linearGradient id="cloudFill" x1="0" y1="0" x2="0" y2="1">
      <stop offset="0%" stop-color="#FFFFFF"/>
      <stop offset="100%" stop-color="#F2F7F7"/>
    </linearGradient>
  </defs>

  <!-- Background sky blob (kept abstract so it's clearly distinct) -->
  <g opacity="0.9">
    <path d="M346,620
             C220,520 240,360 360,290
             C520,190 740,230 880,330
             C980,400 1060,430 1180,420
             C1380,405 1505,480 1550,600
             C1590,705 1530,820 1410,875
             C1280,935 1110,910 995,860
             C890,815 815,800 705,825
             C575,855 465,780 420,705
             Z"
          fill="url(#sky)"/>
  </g>

  <!-- Left cloud -->
  <g filter="url(#softShadow)" transform="translate(230, 640)">
    <path d="M210,80
             c40,-45 110,-45 150,0
             c35,-60 120,-60 160,0
             c55,-8 95,30 95,75
             c0,50 -45,90 -100,90
             H120
             c-55,0 -100,-40 -100,-90
             c0,-45 35,-80 90,-75
             z"
          fill="url(#cloudFill)"/>
  </g>

  <!-- Right cloud -->
  <g filter="url(#softShadow)" transform="translate(1230, 730)">
    <path d="M140,60
             c30,-35 85,-35 120,0
             c28,-48 95,-48 125,0
             c45,-6 78,24 78,60
             c0,40 -37,72 -82,72
             H95
             c-45,0 -82,-32 -82,-72
             c0,-36 29,-63 87,-60
             z"
          fill="url(#cloudFill)"/>
  </g>

  <!-- Settings card -->
  <g filter="url(#softShadow)" transform="translate(680, 260)">
    <!-- Rounded square card -->
    <rect x="0" y="0" rx="68" ry="68" width="560" height="560" fill="url(#cardGrad)" stroke="#CFC9C0" stroke-width="2"/>

    <!-- Inset border for depth -->
    <rect x="14" y="14" rx="56" ry="56" width="532" height="532" fill="none" stroke="#DCD6CE" stroke-width="2"/>

    <!-- Gear group -->
    <g transform="translate(280, 280)">
      <!-- Outer ring -->
      <circle r="148" fill="none" stroke="#4A4A4A" stroke-width="28"/>

      <!-- Teeth (12) - unique rectangular teeth arranged radially -->
      <g fill="#4A4A4A">
        <!-- Use repeated rotated rectangles as teeth -->
        <g transform="rotate(0)"><rect x="-16" y="-190" width="32" height="54" rx="6"/></g>
        <g transform="rotate(30)"><rect x="-16" y="-190" width="32" height="54" rx="6"/></g>
        <g transform="rotate(60)"><rect x="-16" y="-190" width="32" height="54" rx="6"/></g>
        <g transform="rotate(90)"><rect x="-16" y="-190" width="32" height="54" rx="6"/></g>
        <g transform="rotate(120)"><rect x="-16" y="-190" width="32" height="54" rx="6"/></g>
        <g transform="rotate(150)"><rect x="-16" y="-190" width="32" height="54" rx="6"/></g>
        <g transform="rotate(180)"><rect x="-16" y="-190" width="32" height="54" rx="6"/></g>
        <g transform="rotate(210)"><rect x="-16" y="-190" width="32" height="54" rx="6"/></g>
        <g transform="rotate(240)"><rect x="-16" y="-190" width="32" height="54" rx="6"/></g>
        <g transform="rotate(270)"><rect x="-16" y="-190" width="32" height="54" rx="6"/></g>
        <g transform="rotate(300)"><rect x="-16" y="-190" width="32" height="54" rx="6"/></g>
        <g transform="rotate(330)"><rect x="-16" y="-190" width="32" height="54" rx="6"/></g>
      </g>

      <!-- Inner decorative rings -->
      <circle r="102" fill="none" stroke="url(#ringGrad)" stroke-width="16"/>
      <circle r="62" fill="none" stroke="#5A5A5A" stroke-width="12"/>

      <!-- Tri-split indicator (unique motif; not copying any platform icon) -->
      <g fill="none" stroke="#4A4A4A" stroke-width="12" stroke-linecap="round">
        <path d="M0,-60 L0,-100"/>
        <path d="M-52,30 L-86,50"/>
        <path d="M52,30 L86,50"/>
      </g>

      <!-- Center cap -->
      <circle r="18" fill="#4A4A4A"/>
    </g>
  </g>

  <!-- Small decorative sparkles for originality -->
  <g opacity="0.35">
    <circle cx="380" cy="360" r="6" fill="#FFFFFF"/>
    <circle cx="410" cy="340" r="4" fill="#FFFFFF"/>
    <circle cx="1520" cy="420" r="5" fill="#FFFFFF"/>
    <circle cx="1490" cy="440" r="3" fill="#FFFFFF"/>
  </g>
</svg>
